<svg xmlns="http://www.w3.org/2000/svg" xmlns:xlink="http://www.w3.org/1999/xlink" width="27" height="25" viewBox="0 0 27 25"><defs><path id="3ycna" d="M699 1742.5a1.5 1.5 0 1 1-3 0 1.5 1.5 0 0 1 3 0z"/><path id="3ycnb" d="M711 1754.5a1.5 1.5 0 1 1-3 0 1.5 1.5 0 0 1 3 0z"/><path id="3ycnc" d="M687 1754.5a1.5 1.5 0 1 1-3 0 1.5 1.5 0 0 1 3 0z"/><path id="3ycnd" d="M699 1764.5a1.5 1.5 0 1 1-3 0 1.5 1.5 0 0 1 3 0z"/><path id="3ycne" d="M697.5 1764.5v-20"/><path id="3ycnf" d="M709.5 1754.5l-12-12"/><path id="3ycng" d="M685.5 1754.5l12-12"/><clipPath id="3ycnh"><use fill="#fff" xlink:href="#3ycna"/></clipPath><clipPath id="3ycni"><use fill="#fff" xlink:href="#3ycnb"/></clipPath><clipPath id="3ycnj"><use fill="#fff" xlink:href="#3ycnc"/></clipPath><clipPath id="3ycnk"><use fill="#fff" xlink:href="#3ycnd"/></clipPath></defs><g><g transform="translate(-684 -1741)"><use fill="#fff" fill-opacity="0" stroke="#fff" stroke-miterlimit="50" stroke-width="3" xlink:href="#3ycne"/></g><g transform="translate(-684 -1741)"><use fill="#fff" fill-opacity="0" stroke="#fff" stroke-miterlimit="50" stroke-width="3" xlink:href="#3ycnf"/></g><g transform="translate(-684 -1741)"><use fill="#fff" fill-opacity="0" stroke="#fff" stroke-miterlimit="50" stroke-width="3" xlink:href="#3ycng"/></g><g transform="translate(-684 -1741)"><use fill="#fff" xlink:href="#3ycna"/><use fill="#fff" fill-opacity="0" stroke="#fff" stroke-miterlimit="50" stroke-width="2" clip-path="url(&quot;#3ycnh&quot;)" xlink:href="#3ycna"/></g><g transform="translate(-684 -1741)"><use fill="#fff" xlink:href="#3ycnb"/><use fill="#fff" fill-opacity="0" stroke="#fff" stroke-miterlimit="50" stroke-width="2" clip-path="url(&quot;#3ycni&quot;)" xlink:href="#3ycnb"/></g><g transform="translate(-684 -1741)"><use fill="#fff" xlink:href="#3ycnc"/><use fill="#fff" fill-opacity="0" stroke="#fff" stroke-miterlimit="50" stroke-width="2" clip-path="url(&quot;#3ycnj&quot;)" xlink:href="#3ycnc"/></g><g transform="translate(-684 -1741)"><use fill="#fff" xlink:href="#3ycnd"/><use fill="#fff" fill-opacity="0" stroke="#fff" stroke-miterlimit="50" stroke-width="2" clip-path="url(&quot;#3ycnk&quot;)" xlink:href="#3ycnd"/></g></g></svg>