<svg xmlns="http://www.w3.org/2000/svg" xmlns:xlink="http://www.w3.org/1999/xlink" width="27" height="43" viewBox="0 0 27 43"><defs><path id="s52pa" d="M403 768.5a1.5 1.5 0 1 1 3 0 1.5 1.5 0 0 1-3 0z"/><path id="s52pb" d="M403 728.5a1.5 1.5 0 1 1 3 0 1.5 1.5 0 0 1-3 0z"/><path id="s52pc" d="M391 756.5a1.5 1.5 0 1 1 3 0 1.5 1.5 0 0 1-3 0z"/><path id="s52pd" d="M415 756.5a1.5 1.5 0 1 1 3 0 1.5 1.5 0 0 1-3 0z"/><path id="s52pe" d="M404.5 728.5v40"/><path id="s52pf" d="M392.5 756.5l12 12"/><path id="s52pg" d="M416.5 756.5l-12 12"/><clipPath id="s52ph"><use fill="#fff" xlink:href="#s52pa"/></clipPath><clipPath id="s52pi"><use fill="#fff" xlink:href="#s52pb"/></clipPath><clipPath id="s52pj"><use fill="#fff" xlink:href="#s52pc"/></clipPath><clipPath id="s52pk"><use fill="#fff" xlink:href="#s52pd"/></clipPath></defs><g><g transform="translate(-391 -727)"><g><use fill="#fff" fill-opacity="0" stroke="#fff" stroke-miterlimit="50" stroke-width="3" xlink:href="#s52pe"/></g><g><use fill="#fff" fill-opacity="0" stroke="#fff" stroke-miterlimit="50" stroke-width="3" xlink:href="#s52pf"/></g><g><use fill="#fff" fill-opacity="0" stroke="#fff" stroke-miterlimit="50" stroke-width="3" xlink:href="#s52pg"/></g><g><use fill="#fff" xlink:href="#s52pa"/><use fill="#fff" fill-opacity="0" stroke="#fff" stroke-miterlimit="50" stroke-width="2" clip-path="url(&quot;#s52ph&quot;)" xlink:href="#s52pa"/></g><g><use fill="#fff" xlink:href="#s52pb"/><use fill="#fff" fill-opacity="0" stroke="#fff" stroke-miterlimit="50" stroke-width="2" clip-path="url(&quot;#s52pi&quot;)" xlink:href="#s52pb"/></g><g><use fill="#fff" xlink:href="#s52pc"/><use fill="#fff" fill-opacity="0" stroke="#fff" stroke-miterlimit="50" stroke-width="2" clip-path="url(&quot;#s52pj&quot;)" xlink:href="#s52pc"/></g><g><use fill="#fff" xlink:href="#s52pd"/><use fill="#fff" fill-opacity="0" stroke="#fff" stroke-miterlimit="50" stroke-width="2" clip-path="url(&quot;#s52pk&quot;)" xlink:href="#s52pd"/></g></g></g></svg>